<?xml version="1.0" standalone="no"?>
<!DOCTYPE svg PUBLIC "-//W3C//DTD SVG 20010904//EN"
 "http://www.w3.org/TR/2001/REC-SVG-20010904/DTD/svg10.dtd">
<svg version="1.0" xmlns="http://www.w3.org/2000/svg"
 width="700.000000pt" height="700.000000pt" viewBox="0 0 700.000000 700.000000"
 preserveAspectRatio="xMidYMid meet">
<metadata>
Created by potrace 1.11, written by Peter Selinger 2001-2013
</metadata>
<g transform="translate(0.000000,700.000000) scale(0.100000,-0.100000)"
fill="#000000" stroke="none">
<path d="M521 6989 c-143 -28 -250 -87 -347 -191 -74 -80 -115 -148 -146 -248
l-23 -75 0 -2980 0 -2980 31 -85 c38 -106 87 -182 168 -257 76 -72 129 -104
232 -140 l79 -28 2980 0 c2862 0 2982 1 3039 18 120 37 187 77 276 167 90 89
130 156 167 276 17 57 18 177 18 3034 l0 2975 -23 75 c-31 99 -72 168 -144
246 -77 81 -162 137 -263 172 l-80 27 -2960 1 c-1656 1 -2980 -2 -3004 -7z
m5251 -800 c204 -43 354 -209 378 -420 13 -114 13 -4424 0 -4538 -24 -209
-176 -378 -378 -420 -75 -16 -4469 -16 -4544 0 -202 42 -354 211 -378 420 -13
114 -13 4424 0 4538 23 206 166 369 363 417 71 17 4478 20 4559 3z"/>
<path d="M1275 5746 c-39 -18 -80 -62 -99 -108 -14 -33 -16 -189 -16 -1385 0
-1291 1 -1350 19 -1388 22 -47 64 -89 104 -104 19 -8 331 -11 976 -11 l947 0
47 29 c28 19 54 46 67 70 20 40 20 50 20 1406 0 1320 -1 1367 -19 1403 -23 46
-46 67 -94 87 -32 13 -153 15 -979 15 -766 -1 -949 -3 -973 -14z"/>
<path d="M3770 5744 c-45 -20 -68 -41 -91 -86 -18 -36 -19 -77 -19 -1098 0
-868 2 -1067 14 -1093 18 -43 77 -94 125 -107 27 -7 336 -10 968 -8 919 3 928
3 968 24 22 11 54 40 70 63 l30 43 3 1051 c2 739 0 1063 -8 1090 -14 47 -65
106 -107 123 -26 12 -205 14 -975 14 -817 -1 -948 -3 -978 -16z"/>
<path d="M3767 3045 c-51 -18 -83 -49 -102 -99 -14 -36 -15 -134 -13 -816 3
-761 3 -776 24 -810 11 -19 35 -45 54 -57 l33 -23 982 0 982 0 34 23 c19 12
44 42 57 67 l22 44 0 773 c0 635 -2 779 -14 806 -19 44 -64 83 -111 96 -28 7
-332 11 -975 11 -766 -1 -942 -3 -973 -15z"/>
</g>
</svg>
