<?xml version="1.0" encoding="UTF-8" standalone="no"?>
<!DOCTYPE svg PUBLIC "-//W3C//DTD SVG 1.1//EN" "http://www.w3.org/Graphics/SVG/1.1/DTD/svg11.dtd">
<svg width="100%" height="100%" viewBox="0 0 1000 1000" version="1.1" xmlns="http://www.w3.org/2000/svg" xmlns:xlink="http://www.w3.org/1999/xlink" xml:space="preserve" xmlns:serif="http://www.serif.com/" style="fill-rule:evenodd;clip-rule:evenodd;stroke-linejoin:round;stroke-miterlimit:2;">
    <path d="M1000,90C1000,40.328 959.672,0 910,0L90,0C40.328,0 0,40.328 0,90L0,910C0,959.672 40.328,1000 90,1000L910,1000C959.672,1000 1000,959.672 1000,910L1000,90Z" style="fill:rgb(2,117,216);"/>
    <g transform="matrix(1.14809,0,0,1.20788,-130.192,-184.087)">
        <path d="M879.148,303.666C879.148,272.482 852.513,247.164 819.705,247.164L278.106,247.164C245.298,247.164 218.662,272.482 218.662,303.666L218.662,829.04C218.662,860.224 245.298,885.542 278.106,885.542L819.705,885.542C852.513,885.542 879.148,860.224 879.148,829.04L879.148,303.666Z" style="fill:white;"/>
    </g>
    <g transform="matrix(1.17179,0,0,1.76658,295.69,-157.045)">
        <path d="M459.813,204.762C459.813,195.976 449.059,188.843 435.813,188.843L217.142,188.843C203.895,188.843 193.141,195.976 193.141,204.762L193.141,368.014C193.141,376.801 203.895,383.934 217.142,383.934L435.813,383.934C449.059,383.934 459.813,376.801 459.813,368.014L459.813,204.762Z" style="fill:rgb(2,117,216);"/>
    </g>
    <g transform="matrix(1.17179,0,0,2.21052,-60.8171,-240.88)">
        <path d="M459.813,201.565C459.813,194.543 449.059,188.843 435.813,188.843L217.142,188.843C203.895,188.843 193.141,194.543 193.141,201.565L193.141,371.211C193.141,378.233 203.895,383.934 217.142,383.934L435.813,383.934C449.059,383.934 459.813,378.233 459.813,371.211L459.813,201.565Z" style="fill:rgb(2,117,216);"/>
    </g>
    <g transform="matrix(1.17179,0,0,1.33304,295.425,311.641)">
        <path d="M459.813,206.401C459.813,196.71 450.863,188.843 439.839,188.843L213.115,188.843C202.091,188.843 193.141,196.71 193.141,206.401L193.141,366.376C193.141,376.066 202.091,383.934 213.115,383.934L439.839,383.934C450.863,383.934 459.813,376.066 459.813,366.376L459.813,206.401Z" style="fill:rgb(2,117,216);"/>
    </g>
</svg>
